<svg xmlns="http://www.w3.org/2000/svg" fill="none" viewBox="0 0 343 439"><path fill="#FBF7ED" d="M157.818 212.1h-10v52.8h10v-52.8zm17.081-.178l-.299 52.8 10 .057.299-52.8-10-.057zm27.103-.061l-.629 52.795 9.999.119.629-52.795-9.999-.119zm27.014-.068l-.959 52.789 9.998.182.959-52.789-9.998-.182zm32.6 1.656l-12.313 51.342 9.724 2.332 12.313-51.342-9.724-2.332zm35.789 15.235l-33.993 40.403 7.652 6.438 33.993-40.403-7.652-6.438zm24.53 28.738l-47.562 22.925 4.342 9.008 47.562-22.925-4.342-9.008zm11.518 32.294l-52.082 8.686 1.645 9.864 52.082-8.686-1.645-9.864zm-50.114 30.688l-.142 9.999 52.795.748.142-9.999-52.795-.748zm-.029 26.987l-.115 9.999 52.795.604.114-9.999-52.794-.604zm.006 26.953l-.087 10 52.8.46.087-10-52.8-.46zm-.024 26.982l-.06 10 52.8.315.06-10-52.8-.315zm-.023 26.979l-.033 10 52.8.172.033-10-52.8-.172z"/><path fill="#3FB484" d="M342.918 47.9L294.818 0v25.4h-147.4v45h147.4v25.4l48.1-47.9z"/><path fill="#90DFD6" d="M112.019 260.7h-.8c-12.4-.4-22.2-10.7-21.8-23.2.4-12.2 10.4-21.8 22.5-21.8h.5c12.2.2 22.1 10.2 22.1 22.5 0 12.4-10.1 22.5-22.5 22.5zm-.1-22.8v.3-.3zm-55.4 4c-4.7 0-9.4-1.5-13.5-4.5-10-7.4-12.1-21.5-4.7-31.5 7.4-10 21.5-12.1 31.5-4.7l.2.1c9.9 7.5 12 21.6 4.5 31.5-4.4 5.9-11.2 9.1-18 9.1zm-34-47.8c-9.4 0-18.2-6-21.3-15.4-.1-.2-.1-.4-.2-.6-3.7-11.9 3-24.5 14.9-28.1 11.8-3.6 24.4 3 28.1 14.8 3.7 11.7-2.6 24.3-14.3 28.2-2.4.7-4.8 1.1-7.2 1.1zm.5-22.8l-.5.1.5-.1zm0-35.8c-2.2 0-4.5-.3-6.7-1-11.9-3.7-18.5-16.3-14.8-28.2.1-.2.1-.4.2-.6 4-11.8 16.8-18.1 28.5-14.1 11.7 4 18 16.7 14.1 28.4-3.1 9.4-11.9 15.5-21.3 15.5zm.4-22.5l-.5-.2.5.2zm34.2-24.8c-6.9 0-13.7-3.2-18.1-9.1-7.4-10-5.3-24.1 4.7-31.5l.4-.3c10.1-7.2 24.2-4.9 31.4 5.2 7.2 10.1 4.9 24.1-5.2 31.3-4 3-8.6 4.4-13.2 4.4zm.6-21.8l-.6-.8.6.8zm55.3 3.7c-12.5 0-22.6-10.1-22.6-22.5s10.1-22.5 22.5-22.5 22.5 10.1 22.5 22.5-10 22.5-22.4 22.5z"/></svg>