<svg xmlns="http://www.w3.org/2000/svg" fill="none" viewBox="0 0 271 351"><path fill="#008060" d="M128.419 39.245l53.008-23.716-31.913 77.82-21.095-54.104z"/><path fill="#008060" d="M235.938 187.942c0-52.835-32.262-98.175-78.229-117.319l13.456-32.31c58.555 24.386 99.773 82.174 99.773 149.629 0 5.005-.227 9.961-.673 14.859l-34.856-3.174c.35-3.843.529-7.741.529-11.685z"/><path fill="#90DFD6" fill-rule="evenodd" d="M252.745 212.626c9.203 2.953 14.269 12.807 11.316 22.01-.116.362-.234.723-.352 1.084-3.017 9.182-12.906 14.18-22.088 11.164-9.182-3.017-14.18-12.906-11.164-22.088l.134-.41c.049-.148.096-.297.144-.445 2.953-9.202 12.808-14.269 22.01-11.315zm-16.147 44.077c7.834 5.66 9.596 16.6 3.935 24.434-.222.307-.445.613-.669.918-5.714 7.796-16.665 9.483-24.46 3.769-7.795-5.714-9.482-16.665-3.769-24.46.177-.242.354-.484.529-.726 5.661-7.834 16.6-9.596 24.434-3.935zm-28.991 36.918c5.714 7.795 4.027 18.746-3.769 24.46-.305.224-.611.447-.919.669-7.833 5.661-18.773 3.899-24.433-3.935-5.661-7.834-3.899-18.773 3.935-24.434l.726-.528c7.795-5.714 18.746-4.027 24.46 3.768zm-204.22 0c5.714-7.795 16.665-9.482 24.46-3.768.241.177.483.353.726.528 7.834 5.661 9.596 16.6 3.935 24.434-5.66 7.834-16.6 9.596-24.434 3.935-.307-.222-.613-.445-.919-.669-7.795-5.714-9.482-16.665-3.768-24.46zm38.94 26.217c3.017-9.182 12.906-14.18 22.088-11.163l.855.277c9.202 2.953 14.269 12.808 11.315 22.01-2.953 9.203-12.807 14.269-22.01 11.316-.362-.116-.723-.233-1.084-.352-9.182-3.017-14.18-12.906-11.164-22.088zm126.34 0c3.016 9.182-1.982 19.071-11.164 22.088-.361.119-.722.236-1.084.352-9.203 2.953-19.057-2.113-22.01-11.316-2.954-9.202 2.112-19.057 11.315-22.01l.855-.277c9.182-3.017 19.071 1.981 22.088 11.163zm-81.182 12.816c.033-9.665 7.894-17.473 17.559-17.441l.453.001.453-.001c9.665-.032 17.526 7.776 17.558 17.441.033 9.665-7.776 17.527-17.441 17.559l-.57.001-.571-.001c-9.664-.032-17.473-7.894-17.44-17.559z" clip-rule="evenodd"/></svg>