<svg width="320" height="320" fill="none" xmlns="http://www.w3.org/2000/svg"><g clip-path="url(#clip0)"><path d="M315.002 91.7l-271.9-72.8 1 165 270.9 80.5V91.7z" fill="#EFF4D4"/><path d="M43.101 18.9l271.9 72.8v172.6l-270.9-80.4-1-165zm0-1.9c-.4 0-.8.1-1.2.4-.5.4-.7.9-.7 1.5l1 165c0 .8.6 1.6 1.4 1.8l270.9 80.5c.2.1.4.1.5.1.4 0 .8-.1 1.1-.4.5-.4.8-.9.8-1.5V91.7c0-.9-.6-1.6-1.4-1.8l-271.9-72.8c-.2-.1-.3-.1-.5-.1z" fill="#073042"/><path d="M305.402 101.3l-271.8-72.9 1 165 270.9 80.5V101.3h-.1z" fill="#145CC4"/><path d="M33.601 28.4l271.8 72.8v172.6l-270.9-80.3-.9-165.1zm0-1.9c-.4 0-.8.1-1.2.4-.5.4-.7.9-.7 1.5l1 165c0 .8.6 1.6 1.4 1.8l270.9 80.5c.2.1.4.1.5.1.4 0 .8-.1 1.1-.4.5-.4.8-.9.8-1.5V101.3c0-.9-.6-1.6-1.4-1.8l-271.9-72.9c-.2 0-.4-.1-.5-.1z" fill="#073042"/><path d="M295.9 110.8L24 38l1 165 270.9 80.5V110.8z" fill="#BCD1DE"/><path d="M24 38l271.8 72.8v172.6L25 203 24 38zm0-1.9c-.4 0-.8.1-1.2.4-.5.4-.7.9-.7 1.5l1 165c0 .8.6 1.6 1.4 1.8l270.9 80.5c.2.1.4.1.5.1.4 0 .8-.1 1.1-.4.5-.4.8-.9.8-1.5V110.8c0-.9-.6-1.6-1.4-1.8L24.5 36.1H24z" fill="#073042"/><path d="M286.3 120.4L14.5 47.5l1 165L286.3 293V120.4z" fill="#35C073"/><path d="M14.5 47.5l271.8 72.8V293L15.4 212.5l-.9-165zm0-1.9c-.4 0-.8.1-1.2.4-.5.4-.7.9-.7 1.5l1 165c0 .8.6 1.6 1.4 1.8l270.9 80.5c.2.1.4.1.5.1.4 0 .8-.1 1.1-.4.5-.4.8-.9.8-1.5V120.4c0-.9-.6-1.6-1.4-1.8L15 45.7c-.2-.1-.3-.1-.5-.1z" fill="#073042"/><path d="M276.8 129.9L5 57.1l1 165 270.9 80.5V129.9h-.1z" fill="#073042"/><path d="M276.8 303.5h-.3L5.6 223c-.4-.1-.7-.5-.7-.9l-1-165c0-.3.1-.6.4-.8.2-.2.5-.2.8-.2L277 129c.4.1.7.5.7.9v172.6c0 .3-.1.6-.4.8-.1.1-.3.2-.5.2zM6.9 221.4l269 79.9V130.6L5.9 58.3l1 163.1z" fill="#073042"/><path d="M106.001 226.4l-80.3-22.5v3.8l80.3 22.5v-3.8zM250.4 164.7L193 148.6v3.8l57.4 16.1v-3.8zM250.4 194.299l-57.4-16.1v3.8l57.4 16.1v-3.8zM250.4 223.901l-57.4-16.1v3.8l57.4 16.1v-3.8zM250.4 253.6L193 237.5v3.8l57.4 16.1v-3.8zM250.4 171.401l-57.4-16.1v3.8l57.4 16.1v-3.8zM250.4 201L193 184.9v3.8l57.4 16.1V201zM250.4 230.6L193 214.5v3.8l57.4 16.1v-3.8zM250.4 260.299l-57.4-16.1v3.8l57.4 16.1v-3.8z" fill="#80868B"/><path d="M180.274 155.762c4.668-4.058 4.105-12.349-1.258-18.518-5.363-6.168-13.495-7.879-18.163-3.821-4.668 4.059-4.105 12.349 1.258 18.518 5.363 6.169 13.494 7.88 18.163 3.821zM180.279 186.36c4.669-4.058 4.106-12.349-1.257-18.518-5.363-6.169-13.495-7.88-18.163-3.821-4.668 4.058-4.105 12.349 1.258 18.518 5.362 6.168 13.494 7.879 18.162 3.821zM180.287 216.96c4.669-4.059 4.105-12.35-1.257-18.518-5.363-6.169-13.495-7.88-18.163-3.822-4.669 4.059-4.105 12.35 1.257 18.518 5.363 6.169 13.495 7.88 18.163 3.822zM180.293 247.557c4.668-4.058 4.105-12.349-1.258-18.518-5.362-6.168-13.494-7.879-18.162-3.821-4.669 4.058-4.106 12.349 1.257 18.518 5.363 6.169 13.495 7.88 18.163 3.821z" fill="#3DDC84"/><path d="M13.701 69.5l.8.2 1.3 2.4 1.3-1.7.8.2v4.1l-.9-.2v-2.3l-.9 1.2-.6-.2-.9-1.7v2.3l-.9-.3v-4zm6.4 1.7l.8.2 1.7 4.6-1-.3-.4-1-1.7-.5-.4.8-1-.3 2-3.5zm-.1 2.4l1 .3-.5-1.4-.5 1.1zm3-1.5l1.4.4c.3.1.6.2.8.4.2.2.5.4.7.6.2.2.3.5.4.8.1.3.2.6.2.8 0 .3-.1.5-.2.8-.1.2-.3.4-.4.5-.2.1-.4.2-.7.3-.3 0-.5 0-.8-.1l-1.4-.5v-4zm1.4 3.6c.2 0 .3.1.5 0 .1 0 .3-.1.4-.2.1-.1.2-.2.2-.3.1-.1.1-.3.1-.4 0-.2 0-.3-.1-.5s-.1-.3-.2-.4c-.1-.1-.2-.3-.4-.4-.1-.1-.3-.2-.5-.2l-.5-.1v2.4l.5.1zm5.2 2.4c-.3-.1-.5-.2-.7-.3-.2-.1-.4-.3-.5-.4-.1-.2-.2-.3-.3-.5-.1-.2-.1-.4-.1-.5l.9.3c0 .2.1.3.2.5.1.1.3.2.5.3h.4c.1 0 .1-.1.1-.2s0-.2-.1-.3c-.1-.1-.2-.2-.4-.3l-.4-.2c-.3-.2-.6-.4-.8-.7-.2-.3-.3-.6-.3-.9 0-.2 0-.4.1-.5l.3-.3c.1-.1.3-.1.4-.1.2 0 .4 0 .6.1l.6.3c.2.1.3.3.5.4.1.2.2.3.3.5.1.2.1.3.1.5l-.9-.3c0-.2-.1-.3-.2-.4-.1-.1-.2-.2-.3-.2h-.3c-.1 0-.1.1-.1.2s0 .2.1.3c.1.1.2.2.4.3l.5.3c.3.2.6.4.8.7.2.3.3.6.3.9 0 .2 0 .3-.1.5l-.3.3c-.1.1-.3.1-.5.1-.4-.3-.6-.4-.8-.4zm3.3.9l-.6-.3c-.2-.1-.3-.3-.5-.5l-.3-.6c-.1-.2-.1-.4-.1-.6 0-.2 0-.4.1-.6.1-.2.2-.3.3-.4.1-.1.3-.2.5-.2h.6c.2.1.4.1.6.2.2.1.3.2.4.4.1.1.2.3.3.5.1.2.1.3.2.5l-.9-.3c-.1-.1-.1-.2-.2-.3-.1-.1-.2-.2-.4-.2-.2-.1-.3 0-.5.1-.1.1-.2.3-.2.5s.1.4.2.6c.1.2.3.3.5.3h.4c.1-.1.2-.1.2-.2l.9.3c0 .2-.1.3-.2.4l-.3.3c-.1.1-.3.1-.4.1-.2.1-.4 0-.6 0zm3.3.9l-.6-.3c-.2-.1-.3-.3-.5-.5l-.3-.6c-.1-.2-.1-.4-.1-.6 0-.2 0-.4.1-.6.1-.2.2-.3.3-.4.1-.1.3-.2.5-.2h.6l.6.3c.2.1.3.3.5.5l.3.6c.1.2.1.4.1.6 0 .2 0 .4-.1.6-.1.2-.2.3-.3.4-.1.1-.3.2-.5.2-.2.1-.4.1-.6 0zm0-.8c.2.1.3 0 .5-.1.1-.1.2-.2.2-.4s-.1-.4-.2-.6c-.1-.2-.3-.3-.5-.3-.2-.1-.3 0-.5.1-.1.1-.2.2-.2.4s.1.4.2.5c.1.2.3.3.5.4zm2-1.6l.9.2v.4c0-.1.1-.2.3-.3.1-.1.3-.1.4 0h.1s.1 0 .1.1v.9c-.1 0-.1-.1-.2-.1s-.1-.1-.2-.1c-.2-.1-.3 0-.4.1-.1.1-.1.3-.1.5v1.4l-.9-.2v-2.9zm3.5 3.9l-.6-.3c-.2-.1-.3-.3-.5-.5l-.3-.6c-.1-.2-.1-.4-.1-.6 0-.2 0-.4.1-.6.1-.2.2-.3.3-.4.1-.1.3-.2.5-.2s.4 0 .6.1c.2.1.4.1.6.3.2.1.4.3.5.5.1.2.3.4.3.6.1.2.1.5.1.8l-2.2-.5c0 .1 0 .2.1.2 0 .1.1.1.1.2l.2.2c.1.1.2.1.3.1h.3c.1 0 .2-.1.2-.1l.9.3c0 .1-.1.3-.2.4-.1.1-.2.2-.3.2-.1.1-.3.1-.4.1-.2-.1-.4-.1-.5-.2zm-.1-2.3h-.4c-.1.1-.2.1-.2.3l1.2.3c0-.1-.1-.2-.1-.2 0-.1-.1-.1-.1-.2-.1-.1-.1-.1-.2-.1 0 0-.1-.1-.2-.1zm3.2 3.2c-.2-.1-.4-.1-.5-.2-.2-.1-.3-.2-.4-.3-.1-.1-.2-.3-.3-.4-.1-.1-.1-.3-.1-.4l.9.3c0 .1.1.2.1.3.1.1.2.1.3.2h.2c.1 0 .1-.1.1-.1 0-.1 0-.1-.1-.2-.1 0-.1-.1-.2-.2l-.6-.3c-.3-.1-.4-.3-.6-.5-.1-.2-.2-.4-.2-.6 0-.1 0-.2.1-.3.1-.1.1-.2.2-.2s.2-.1.4-.1c.1 0 .3 0 .5.1.2 0 .3.1.4.2.1.1.3.2.4.3.1.1.2.2.3.4.1.2.1.3.1.4l-.9-.2c0-.1-.1-.2-.1-.2.1-.3 0-.3-.1-.3h-.2c-.1 0-.1.1-.1.1v.1s0 .1.1.1c0 0 .1 0 .1.1 0 0 .1 0 .1.1l.5.3c.3.2.5.3.6.5.1.2.2.4.2.6 0 .1 0 .2-.1.3-.1.1-.1.2-.3.2-.1 0-.2.1-.4.1 0-.1-.2-.1-.4-.2zm3.1.9l-.6-.3c-.2-.1-.3-.3-.5-.5l-.3-.6c-.1-.2-.1-.4-.1-.6 0-.2 0-.4.1-.6.1-.2.2-.3.3-.4.1-.1.3-.2.5-.2h.6c.2.1.4.1.6.2.2.1.3.2.4.4.1.1.2.3.3.5.1.2.1.3.2.5l-.9-.3c-.1-.1-.1-.2-.2-.3-.2.1-.3 0-.4 0-.2-.1-.3 0-.5.1-.1.1-.2.3-.2.5s.1.4.2.6c.1.2.3.3.5.3h.4c.1-.1.2-.1.2-.2l.9.3c0 .2-.1.3-.2.4l-.3.3c-.1.1-.3.1-.4.1-.2-.1-.4-.2-.6-.2zm2.8.8c-.2 0-.3-.1-.4-.2l-.3-.3c-.1-.1-.1-.2-.2-.3 0-.1-.1-.2-.1-.4 0-.1 0-.3.1-.3s.1-.1.3-.2c.1 0 .3-.1.4-.1h1c.1 0 .1 0 .1-.1s0-.2-.1-.2c-.1-.1-.2-.1-.3-.2h-.3c-.1 0-.1.1-.2.2l-.8-.2c0-.1 0-.2.1-.4.1-.1.1-.2.3-.3.1-.1.3-.1.4-.1.2 0 .4 0 .6.1.2 0 .3.1.5.2s.3.2.4.3c.1.1.2.3.3.4.1.2.1.3.1.5v1.8l-.9-.2v-.3c-.4.3-.7.4-1 .3zm.2-.6h.4c.1 0 .1-.1.1-.1 0-.1.1-.1.1-.2v-.3h-.6c-.1 0-.2 0-.3.1 0 0-.1.1-.1.2s0 .2.1.2.1 0 .3.1zm2.1-1.7l.9.2v.4c0-.1.1-.2.3-.3.1-.1.3-.1.4 0h.1s.1 0 .1.1v.9c-.1 0-.1-.1-.2-.1s-.1-.1-.2-.1c-.2-.1-.3 0-.4.1-.1.1-.1.3-.1.5v1.4l-.9-.3v-2.8zm3.3 3.8c-.2-.1-.4-.1-.5-.3-.2-.1-.3-.3-.4-.4l-.3-.6c-.1-.2-.1-.4-.1-.6 0-.2 0-.4.1-.5.1-.2.2-.3.3-.4.1-.1.3-.2.4-.2h.5c.1 0 .2.1.3.1.1 0 .2.1.2.1l.2.2c0 .1.1.1.1.2v-1.7l.9.2v4.3l-1-.2v-.3l-.1.1s-.1.1-.2.1h-.2s-.1 0-.2-.1zm.2-.7c.2.1.4 0 .5-.1.1-.1.2-.3.2-.5s-.1-.4-.2-.6c-.1-.2-.3-.3-.5-.3-.2-.1-.4 0-.5.1-.1.1-.2.3-.2.5s.1.4.2.6c.1.1.3.3.5.3z" fill="#fff"/><path d="M25.701 107.301l110.9 31.2v71.1l-110.9-31.1v-71.2z" fill="#073042"/><path d="M51.8 130.2c0-1.4-.7-2.8-1.7-3.8.6-1.1.4-2.7-.6-4.1-.6-.8-1.3-1.3-2.1-1.6-.2-1.4-1.3-2.8-2.6-3.1-.3-.1-.6-.1-.9-.1-.3-.8-1.1-1.4-1.7-1.5-.5-.1-1 0-1.3.2-.3-.5-.8-.8-1.3-1-.6-.2-1.4-.1-1.7.6-.3-.2-.6-.3-.9-.4-1.3-.4-2.5.3-2.6 1.7-.8-.2-1.5 0-2.1.4-.9.8-1.1 2.3-.6 3.7-1.1.4-1.7 1.4-1.7 2.8s.7 2.8 1.7 3.8c-.3.5-.3 1.1-.2 1.8.3 1.5 1.5 3 2.9 3.4.2 1.4 1.2 2.7 2.5 3 .4.1.9.2 1.3.1.4.5.9.9 1.4 1h.1c.5.1 1 0 1.3-.2.4.5.8.8 1.3 1h.1c.5.1 1 .1 1.4-.2.4.3.9.5 1.3.6 1.3.4 2.3-.3 2.5-1.6 1.4.3 2.6-.4 2.9-1.8.1-.6.1-1.3-.2-1.9.8-.3 1.5-1.4 1.5-2.8zm-12.3 6c-.4-.1-.8-.4-.8-1.1 0-.3-.3-.6-.5-.6-.3-.1-.5.1-.5.4v.2c-.3.1-.6 0-.9-.1-.7-.2-1.3-1-1.5-1.8.8 0 1.4-.5 1.7-1.2.1-.3-.1-.6-.4-.7-.3-.2-.6-.1-.6.2-.2.7-.8.7-1.3.7-1.1-.1-2.1-1.2-2.3-2.4-.1-.5 0-1 .3-1.4.1 0 .1-.1.2-.2.1 0 .1-.1.1-.1.2-.2.2-.5-.1-.7-.2-.2-.5-.3-.7-.2-.7-.7-1.2-1.7-1.2-2.7 0-1 .5-1.8 1.3-2.1l.4.6c.1.1.2.2.4.3h.3c.2-.1.2-.5.1-.7l-.4-.6c-.1-.1-.1-.2-.2-.3-.6-1.1-.5-2.4.2-3.1.4-.3.9-.4 1.4-.3.5.2 1.1.5 1.4 1.1.2.3.5.4.7.3.2-.1.2-.5.1-.7-.4-.5-.8-.9-1.3-1.2.1-.8.8-1.3 1.6-1.1.4.1.6.2.8.3v.2c0 .3.2.6.5.7.3.1.5-.1.5-.4v-.4c.1-.6.5-.7.8-.6.4.1.9.6.9 1.2v.5c0 .8-.6 1.2-1.3 1-.3-.1-.5.1-.5.4 0 .3.2.6.5.7.5.1.9.1 1.3-.1v2.4c-.4-.4-.8-.6-1.3-.8-.5-.1-.9-.1-1.2 0-.4.2-.9.2-1.4 0-.5-.2-1-.6-1.3-1.2-.2-.3-.5-.4-.7-.3-.2.1-.3.4-.1.7.5.8 1.2 1.4 2 1.8.1.1.3.1.4.1.1 0 .3.1.3.1 1 .3 1.5-.2 2.3 0 .8.2 1.2.8 1.2 1.5v10.9c-.4.7-.8.9-1.2.8zm10-4.2c-.2-.3-.5-.4-.7-.3-.2.1-.2.5-.1.7.1.1.1.2.2.3.3.6.4 1.2.3 1.7-.2 1.1-1.3 1.6-2.3 1.1-.4-.2-1.1-.6-1.3-1.4-.1-.3-.4-.5-.6-.5-.3 0-.4.2-.4.5.2.9.9 1.7 1.7 2.1-.1.8-.7 1.2-1.5 1-.3-.1-.7-.2-.9-.4v-.2c0-.3-.2-.6-.5-.7-.3-.1-.5 0-.5.3-.1.6-.5.7-.8.6-.4-.1-.9-.6-.9-1.2v-10.9c0-.8.4-1.1 1.2-.8.8.2 1.3 1 2.3 1.3-.1 0 .2.1.3.1.1 0 .3.1.4.1.8.1 1.5-.1 2-.7.2-.2.1-.5-.1-.8-.2-.2-.5-.3-.7-.1-.3.4-.8.5-1.3.4-.5-.1-1-.4-1.4-.8-.4-.3-.8-.6-1.2-.7-.5-.1-.9-.1-1.3.1v-2.4c.4.4.8.6 1.3.8.3.1.5-.1.5-.4 0-.3-.2-.6-.5-.7-.7-.2-1.3-1-1.3-1.8v-.5c0-.7.4-.9.9-.8.4.1.7.4.8 1.1v.4c0 .3.2.6.5.7.3.1.5-.1.5-.4v-.2c.2 0 .4 0 .8.1.8.2 1.5 1.1 1.6 2-.5 0-.9.2-1.3.5-.2.2-.2.5.1.7.2.2.5.3.7.2.4-.3.9-.4 1.4-.3.5.2 1.1.5 1.4 1.1.7 1.1.8 2.4.2 3.2l-.2.2-.4.3c-.2.2-.2.5.1.7.1.1.2.2.3.2.1 0 .3 0 .4-.1l.4-.3c.8.7 1.3 1.7 1.3 2.8-.1 1.1-.6 1.9-1.4 2.1z" fill="#3DDC84"/><path d="M45.8 128.9s-.1 0 0 0c-.2.1-.3.1-.5.2h-.4c-.2 0-.3 0-.5-.1-.2 0-.3-.1-.5-.2s-.3-.2-.4-.3c-.1-.1-.3-.2-.4-.3-.1-.1-.2-.2-.3-.4-.1-.1-.2-.3-.3-.4-.1-.2-.2-.3-.2-.5-.1-.2-.1-.3-.1-.5-.1-.3.1-.5.4-.5.3 0 .5.3.6.6 0 .1.1.2.1.3 0 .1.1.2.1.3.1.1.1.2.2.2.1.1.1.2.2.2l.2.2c.1 0 .2.1.2.1.2.1.3.1.5.1h.2c.1 0 .2 0 .2-.1.1 0 .1-.1.2-.1s.1-.1.2-.2.1-.1.1-.2.1-.2.1-.2c.1-.3.3-.4.6-.2.3.1.5.4.4.7 0 .1-.1.3-.1.4 0 .1-.1.1-.1.2-.1.1-.4.6-.7.7zM38.6 126.6s-.1.1 0 0c-.2.1-.3.1-.5.2h-.4c-.2 0-.3 0-.5-.1-.2 0-.3-.1-.5-.2s-.3-.2-.4-.3c-.1-.1-.3-.2-.4-.3-.1-.1-.2-.2-.3-.4-.1-.1-.2-.3-.3-.4-.1-.2-.2-.3-.2-.5-.1-.2-.1-.3-.1-.5-.1-.3.1-.5.4-.5.3 0 .5.3.6.6 0 .1.1.2.1.3 0 .1.1.2.1.3.1.1.1.2.2.2.1.1.1.2.2.2l.2.2c.1 0 .2.1.2.1.2.1.3.1.5.1h.2c.1 0 .2 0 .2-.1.1 0 .1-.1.2-.1s.1-.1.2-.2.1-.1.1-.2.1-.2.1-.2c.1-.3.3-.4.6-.2.3.1.5.4.4.7 0 .1-.1.3-.1.4 0 .1-.1.1-.1.2-.1.1-.4.6-.7.7z" fill="#3DDC84"/><path d="M34.3 127c-.7-.2-1.5-.8-2.2-1.8-.2-.3-.2-.6.1-.7.2-.1.5 0 .7.3.5.7 1 1.2 1.4 1.3.6.2 1.1-.4 1.1-.4.2-.2.5-.2.7 0 .2.2.3.6.2.8 0 0-.7.9-1.9.6 0-.1-.1-.1-.1-.1zM47.3 130.6c-.7-.2-1.5-.8-2.2-1.8-.2-.3-.2-.6.1-.7.2-.1.5 0 .7.3.5.7 1 1.2 1.4 1.3.6.2 1.1-.4 1.1-.4.2-.2.5-.2.7 0 .2.2.3.6.2.8 0 0-.7.9-1.9.6 0-.1-.1-.1-.1-.1zM39 132.601c0 .2-.3.3-.5.2-.1 0-.1 0-.1-.1-.3-.2-.4-.5-.4-.7.2-.8-.2-1.8-1-2.3-.6-.3-1.2-.3-1.6.2l-.4.7c-.1.2-.5.2-.7 0-.2-.2-.3-.6-.2-.7l.5-.6c.6-.8 1.7-.9 2.8-.3-.1-.1 2 1.1 1.6 3.6zM38.5 129c-.1 0-.1.1-.2.1l.2-.1zM42.6 133.601c0 .2.3.5.5.5h.1c.3 0 .4-.2.4-.5-.2-.9.2-1.7 1-1.7.6 0 1.2.4 1.6 1.1l.4.9c.1.3.5.5.7.4.2-.1.3-.4.2-.6l-.5-.9c-.6-1.1-1.7-1.9-2.8-1.9.1-.1-2 0-1.6 2.7z" fill="#3DDC84"/><path d="M132.301 150.401l-14-3.9c-2-.6-3.6-2.6-3.6-4.7 0-2 1.6-3.2 3.6-2.6h.1c.3-1.9 2-3 4-2.4.4.1.8.3 1.1.5.9-1.2 2.6-1.7 4.3-1.2 2.6.7 4.7 3.2 5.1 5.8 2.1.9 3.7 3.1 3.7 5.3 0 2.5-1.9 3.9-4.3 3.2z" fill="#D7EFFE"/><path d="M107.301 136.399h-.1c-.3-.1-.5-.4-.5-.7 0-.3.2-.5.5-.4h.1c.3.1.5.4.5.7 0 .3-.2.5-.5.4zm-2.2-.6h-.2c-.3-.1-.5-.4-.5-.7 0-.3.2-.5.5-.4l.2.1c.3.1.5.4.5.7.1.2-.2.3-.5.3zm-2.2-.7l-.2-.1c-.3-.1-.5-.4-.5-.7 0-.3.2-.5.5-.4l.2.1c.3.1.5.4.5.7 0 .3-.2.5-.5.4zm-2.3-.6l-.2-.1c-.3-.1-.5-.4-.5-.7 0-.3.2-.5.5-.4l.2.1c.3.1.5.4.5.7.1.3-.2.5-.5.4zm-2.2-.6l-.2-.1c-.3-.1-.5-.4-.5-.7 0-.3.2-.5.5-.4l.2.1c.3.1.5.4.5.7 0 .3-.2.5-.5.4zm-2.2-.7l-.2-.1c-.3-.1-.5-.4-.5-.7 0-.3.2-.5.5-.4l.2.1c.3.1.5.4.5.7 0 .4-.3.5-.5.4zm-2.3-.6l-.2-.1c-.3-.1-.5-.4-.5-.7 0-.3.2-.5.5-.4l.2.1c.3.1.5.4.5.7 0 .3-.2.5-.5.4zm-2.3-.6l-.2-.1c-.3-.1-.5-.4-.5-.7 0-.3.2-.5.5-.4l.2.1c.3.1.5.4.5.7.1.3-.2.5-.5.4zm-2.2-.6h-.2c-.3-.1-.5-.4-.5-.7 0-.3.2-.5.5-.4l.2.1c.3.1.5.4.5.7 0 .2-.2.3-.5.3zm-2.2-.7l-.2-.1c-.3-.1-.5-.4-.5-.7 0-.3.2-.5.5-.4l.2.1c.3.1.5.4.5.7 0 .3-.3.5-.5.4zm-2.3-.6l-.2-.1c-.3-.1-.5-.4-.5-.7 0-.3.2-.5.5-.4l.2.1c.3.1.5.4.5.7 0 .3-.2.5-.5.4zm-2.2-.6l-.2-.1c-.3-.1-.5-.4-.5-.7 0-.3.2-.5.5-.4l.2.1c.3.1.5.4.5.7 0 .3-.2.4-.5.4zm-2.3-.7l-.2-.1c-.3-.1-.5-.4-.5-.7 0-.3.2-.5.5-.4l.2.1c.3.1.5.4.5.7 0 .3-.2.5-.5.4zm-2.2-.6l-.2-.1c-.3-.1-.5-.4-.5-.7 0-.3.2-.5.5-.4l.2.1c.3.1.5.4.5.7 0 .3-.2.5-.5.4zm-2.3-.6l-.2-.1c-.3-.1-.5-.4-.5-.7 0-.3.2-.5.5-.4l.2.1c.3.1.5.4.5.7 0 .3-.2.4-.5.4z" fill="#3DDC84"/><path d="M57.7 129.599c-.1 0-.3-.1-.4-.3-.2-.3-.2-.6 0-.7l2.2-1.6-3.3-.9c-.2-.1-.4-.2-.5-.4-.1-.2 0-.4.1-.5l3-2.2c.2-.1.5-.1.7.2.2.3.2.6 0 .7l-2.1 1.5 3.3.9c.2.1.4.2.5.4.1.2 0 .4-.1.5l-3.1 2.2c0 .2-.2.3-.3.2z" fill="#fff"/><path d="M25.701 142.5v-.5c0-.3.2-.5.5-.4l24.8 7c.3.1.5.4.5.7v36c0 .3-.2.5-.5.4-.3-.1-.5-.4-.5-.7v-35.5l-23.8-6.7-1-.3z" fill="#3DDC84"/><path d="M26.8 142.8v35.5c0 .3-.2.5-.5.4-.3-.1-.5-.4-.5-.7v-35.5l1 .3z" fill="#3DDC84"/><path d="M26.3 144.399l26.7 7.5c.3.1.5-.1.5-.4 0-.3-.2-.6-.5-.7l-26.7-7.5c-.3-.1-.5.1-.5.4 0 .3.2.6.5.7z" fill="#3DDC84"/><path d="M39.701 179.301v-3.9c0-.3.2-.5.5-.4l3.9 1.1c.3.1.5.4.5.7v3.9c0 .3-.2.5-.5.4l-3.9-1.1c-.3-.1-.5-.4-.5-.7zM32.701 177.301v-3.9c0-.3.2-.5.5-.4l3.9 1.1c.3.1.5.4.5.7v3.9c0 .3-.2.5-.5.4l-3.9-1.1c-.3-.1-.5-.4-.5-.7zM39.701 166.199v-3.9c0-.3.2-.5.5-.4l3.9 1.1c.3.1.5.4.5.7v3.9c0 .3-.2.5-.5.4l-3.9-1.1c-.3-.1-.5-.4-.5-.7zM32.701 164.199v-3.9c0-.3.2-.5.5-.4l3.9 1.1c.3.1.5.4.5.7v3.9c0 .3-.2.5-.5.4l-3.9-1.1c-.3-.1-.5-.4-.5-.7zM39.701 157.599v-3.9c0-.3.2-.5.5-.4l3.9 1.1c.3.1.5.4.5.7v3.9c0 .3-.2.5-.5.4l-3.9-1.1c-.3-.1-.5-.4-.5-.7zM32.701 155.599v-3.9c0-.3.2-.5.5-.4l3.9 1.1c.3.1.5.4.5.7v3.9c0 .3-.2.5-.5.4l-3.9-1.1c-.3-.1-.5-.4-.5-.7z" fill="#EA5426"/><path d="M51.2 174.799l-24.6-6.9c-.3-.1-.5-.4-.5-.7 0-.3.2-.5.5-.4l24.6 6.9c.4.2.4 1.2 0 1.1zM110.801 176.199v-.5c0-.3.2-.5.5-.4l24.8 7c.3.1.5.4.5.7v26.3c0 .3-.2.4-.5.4-.3-.1-.5-.4-.5-.7v-25.8l-23.8-6.7-1-.3z" fill="#3DDC84"/><path d="M111.801 176.499v25.8c0 .3-.2.5-.5.4-.3-.1-.5-.4-.5-.7v-25.8l1 .3z" fill="#3DDC84"/><path d="M109.301 177.499l26.7 7.5c.3.1.5-.1.5-.4 0-.3-.2-.6-.5-.7l-26.7-7.5c-.3-.1-.5.1-.5.4 0 .3.2.6.5.7z" fill="#3DDC84"/><path d="M124.701 199.801v-3.9c0-.3.2-.5.5-.4l3.9 1.1c.3.1.5.4.5.7v3.9c0 .3-.2.5-.5.4l-3.9-1.1c-.3-.1-.5-.4-.5-.7zM117.701 197.9V194c0-.3.2-.5.5-.4l3.9 1.1c.3.1.5.4.5.7v3.9c0 .3-.2.5-.5.4l-3.9-1.1c-.2-.1-.5-.4-.5-.7zM124.701 191.301v-3.9c0-.3.2-.5.5-.4l3.9 1.1c.3.1.5.4.5.7v3.9c0 .3-.2.5-.5.4l-3.9-1.1c-.3-.2-.5-.5-.5-.7zM117.701 189.301v-3.9c0-.3.2-.5.5-.4l3.9 1.1c.3.1.5.4.5.7v3.9c0 .3-.2.5-.5.4l-3.9-1.1c-.2-.1-.5-.4-.5-.7z" fill="#EA5426"/><path d="M122.6 157.5l-1.1-.5c-.3-.1-.6-.4-.7-.6-.1-.2 0-.5.2-.7l.7-.7c.3-.3.2-.8-.1-1.2l-1.1-1.4c-.2-.2-.4-.4-.6-.4-.2-.1-.4 0-.5 0l-.9.4c-.2.1-.4.1-.6 0-.3-.1-.5-.4-.6-.9l-.2-1.2c-.1-.4-.5-.9-.9-1l-1.5-.4c-.4-.1-.8.1-.9.5l-.2 1.1c-.1.4-.3.6-.6.5-.2-.1-.4-.2-.6-.4l-.9-.9c-.2-.1-.3-.2-.5-.3-.2-.1-.5 0-.6.1l-1.1.8c-.3.2-.3.7-.1 1.1l.7 1.1c.2.3.3.6.2.8-.1.2-.3.3-.7.2l-1.1-.1c-.4 0-.7.3-.7.7v1.5c0 .4.3.9.7 1.1l1.1.5c.3.1.6.4.7.6.1.2 0 .5-.2.7l-.7.7c-.3.3-.2.8.1 1.2l1.1 1.4c.2.2.4.4.6.4.2.1.4 0 .5 0l.9-.4c.2-.1.4-.1.6 0 .3.1.5.4.6.9l.2 1.2c.1.4.5.9.9 1l1.5.4c.4.1.8-.1.9-.5l.2-1.1c.1-.4.3-.6.6-.5.2.1.4.2.6.4l.9.9c.2.1.3.2.5.3.2.1.5 0 .6-.1l1.1-.8c.3-.2.3-.7.1-1.1l-.7-1.1c-.2-.3-.3-.6-.2-.8.1-.2.3-.3.7-.2l1.1.1c.4 0 .7-.3.7-.7v-1.5c.1-.5-.2-.9-.7-1.1zm-7.2 1.9c-1.3-.4-2.3-1.7-2.3-3s1.1-2 2.3-1.7c1.3.4 2.3 1.7 2.3 3s-1 2.1-2.3 1.7zM132.201 171.301l-.7-.3c-.2-.1-.4-.2-.4-.4-.1-.1 0-.3.1-.5l.4-.5c.2-.2.1-.5-.1-.8l-.7-.9c-.1-.1-.3-.2-.4-.3h-.3l-.6.3c-.1.1-.3.1-.4 0-.2-.1-.4-.3-.4-.6l-.1-.8c-.1-.3-.3-.6-.6-.6l-1-.3c-.3-.1-.5.1-.6.3l-.1.7c-.1.3-.2.4-.4.3-.1 0-.2-.1-.4-.2l-.6-.6c-.1-.1-.2-.2-.3-.2h-.4l-.7.5c-.2.1-.2.5-.1.7l.4.7c.1.2.2.4.1.5-.1.1-.2.2-.4.2l-.7-.1c-.3 0-.5.2-.5.4v1c0 .3.2.6.5.7l.7.3c.2.1.4.2.4.4.1.1 0 .3-.1.5l-.4.5c-.2.2-.1.5.1.8l.7.9c.1.1.3.2.4.3h.3l.6-.3c.1 0 .3-.1.4 0 .2.1.4.3.4.6l.1.8c.1.3.3.6.6.6l1 .3c.3.1.5-.1.6-.3l.1-.7c.1-.3.2-.4.4-.3.1 0 .2.1.4.2l.6.6c.1.1.2.2.3.2h.4l.7-.5c.2-.1.2-.5.1-.7l-.4-.7c-.1-.2-.2-.4-.1-.5.1-.1.2-.2.4-.2l.7.1c.3 0 .5-.2.5-.4v-1c0-.3-.2-.6-.5-.7zm-4.7 1.3c-.9-.2-1.6-1.1-1.6-2 0-.9.7-1.4 1.6-1.1.9.2 1.6 1.1 1.6 2 0 .8-.7 1.3-1.6 1.1z" fill="#1769E0"/><path d="M57.8 177.6V173c0-.3.2-.5.5-.4.3.1.5.4.5.7v4.6c0 .3-.2.5-.5.4-.2-.1-.5-.4-.5-.7z" fill="#3DDC84"/><path d="M55.6 174.699c0-.3.2-.5.5-.4l4.5 1.3c.3.1.5.4.5.7 0 .3-.2.5-.5.4l-4.6-1.3c-.2-.1-.4-.4-.4-.7z" fill="#3DDC84"/><path d="M57.8 177.6V173c0-.3.2-.5.5-.4.3.1.5.4.5.7v4.6c0 .3-.2.5-.5.4-.2-.1-.5-.4-.5-.7z" fill="#3DDC84"/><path d="M55.6 174.699c0-.3.2-.5.5-.4l4.5 1.3c.3.1.5.4.5.7 0 .3-.2.5-.5.4l-4.6-1.3c-.2-.1-.4-.4-.4-.7zM57.8 187.001v-4.6c0-.3.2-.5.5-.4.3.1.5.4.5.7v4.6c0 .3-.2.5-.5.4-.2-.1-.5-.4-.5-.7z" fill="#3DDC84"/><path d="M55.6 184.1c0-.3.2-.5.5-.4l4.5 1.3c.3.1.5.4.5.7 0 .3-.2.5-.5.4l-4.6-1.3c-.2-.1-.4-.4-.4-.7z" fill="#3DDC84"/><path d="M57.8 187.001v-4.6c0-.3.2-.5.5-.4.3.1.5.4.5.7v4.6c0 .3-.2.5-.5.4-.2-.1-.5-.4-.5-.7z" fill="#3DDC84"/><path d="M55.6 184.1c0-.3.2-.5.5-.4l4.5 1.3c.3.1.5.4.5.7 0 .3-.2.5-.5.4l-4.6-1.3c-.2-.1-.4-.4-.4-.7zM99.862 180.197c8.961-7.791 7.854-23.736-2.473-35.615-10.327-11.879-25.963-15.194-34.925-7.403-8.961 7.791-7.854 23.736 2.473 35.615 10.327 11.879 25.964 15.194 34.925 7.403z" fill="#3DDC84"/><path d="M91 154.9l-19.7-5.5v16.2l19.7 5.5v-16.2zM86 145.9l1.7-2.3c.1-.1 0-.4-.1-.5-.2-.1-.4-.1-.5 0l-1.7 2.4c-1.3-.9-2.7-1.7-4.2-2.1-1.5-.4-2.9-.5-4.2-.3l-1.7-3.3c-.1-.2-.3-.3-.5-.3-.2.1-.2.2-.1.4l1.7 3.2c-2.8.7-4.7 3-5 6.2l19.7 5.5c-.4-3.3-2.3-6.6-5.1-8.9z" fill="#fff"/><path d="M76.8 155l-5.5-1.5v20.2l9.9 2.8v-13.1l-4.4-8.4z" fill="#3DDC84"/><path d="M76.8 155l-5.5-1.5v20.2l9.9 2.8v-13.1l-3.7-2.8.6-1.1-2.1-1 .8-3.5z" fill="#1769E0"/><path d="M85.5 157.4l5.5 1.5v20.2l-9.9-2.8v-13.1l4.4-5.8z" fill="#3DDC84"/><path d="M85.5 157.4l5.5 1.5v20.2l-9.9-2.8v-13.1l3.7-.7-.6-1.5 2.1.2-.8-3.8zM86.001 148.399l-9.6-2.7c-2-.6-3.7.5-3.8 2.4-.2 2.3 1.9 4.8 4.2 5.1 1.6.2 2.9-.7 3.1-2.3 0-.2.2-1.2 1.2-.9 1.1.3 1.2 1.4 1.2 1.6.2 1.7 1.5 3.4 3.1 4 2.4 1 4.4-.4 4.2-2.8 0-1.9-1.7-3.9-3.6-4.4z" fill="#D7EFFE"/><path fill-rule="evenodd" clip-rule="evenodd" d="M73.3 148.7c0 .7-.6 1.2-1.3 1-.7-.2-1.3-1-1.3-1.7s.6-1.2 1.3-1c.7.2 1.3.9 1.3 1.7zm-2.8 1.8c0 .4-.3.6-.7.5-.4-.1-.7-.5-.7-.9s.3-.6.7-.5c.4.2.7.6.7.9zm1.8 3.6c.6.2 1-.2 1-.7 0-.5-.5-1.2-1-1.3-.6-.2-1 .2-1 .7 0 .6.5 1.2 1 1.3zM70.9 140.9c0 .6-.5 1-1.1.8-.6-.2-1.1-.8-1.1-1.5 0-.6.5-1 1.1-.8.7.2 1.1.9 1.1 1.5zm.7 3.3c.4.1.7-.1.7-.5s-.3-.8-.7-.9c-.4-.1-.7.1-.7.5s.3.8.7.9zm-2 2.1c.6.2 1-.2 1-.7 0-.6-.5-1.2-1-1.3-.6-.2-1 .2-1 .7 0 .5.4 1.1 1 1.3z" fill="#EA5426"/><path fill-rule="evenodd" clip-rule="evenodd" d="M74.7 154.6c0-.4-.3-.9-.8-1l-4.1-1.2c-.4-.1-.8.1-.8.6v15.5c0 1.6 1.3 3.2 2.8 3.6 1.6.4 2.8-.5 2.8-2 .1-.1.1-15.1.1-15.5z" fill="#fff"/><path fill-rule="evenodd" clip-rule="evenodd" d="M74.2 155.2l.3.1c.4.1.8-.1.8-.6s-.3-.9-.8-1l-6.2-1.7c-.4-.1-.8.1-.8.6 0 .4.3.9.8 1l.3.1v14.7c0 1.6 1.3 3.2 2.8 3.6 1.6.4 2.8-.5 2.8-2v-14.8z" fill="#073042"/><path fill-rule="evenodd" clip-rule="evenodd" d="M89.5 151.601c.6.2 1.1.8 1.1 1.4 0 .6-.5.9-1.1.8-.6-.2-1.1-.8-1.1-1.4.1-.6.5-.9 1.1-.8zm3.2 4.1c.6.2 1 .8 1 1.3s-.5.9-1 .7c-.6-.2-1-.8-1-1.3s.5-.8 1-.7zm-1.7 2.6c0-.6-.5-1.2-1-1.3-.6-.2-1 .2-1 .7 0 .5.5 1.2 1 1.3.5.2 1-.1 1-.7zM91.4 149.599c0-.4-.3-.8-.7-.9-.4-.1-.7.1-.7.5s.3.8.7.9c.4.1.7-.2.7-.5zm2.8 3.3c0-.7-.6-1.4-1.2-1.6-.6-.2-1.2.2-1.2.9s.6 1.4 1.2 1.6c.6.2 1.2-.2 1.2-.9z" fill="#EA5426"/><path fill-rule="evenodd" clip-rule="evenodd" d="M87.6 173.6c0 1.6 1.3 3.2 2.8 3.6 1.6.4 2.8-.5 2.8-2v-15.5c0-.4-.3-.9-.8-1l-4.1-1.2c-.4-.1-.8.1-.8.6.1.5.1 15.5.1 15.5z" fill="#fff"/><path fill-rule="evenodd" clip-rule="evenodd" d="M88.1 173.8c0 1.6 1.3 3.2 2.8 3.6 1.6.4 2.8-.5 2.8-2v-14.7l.3.1c.4.1.8-.1.8-.6s-.3-.9-.8-1l-6.2-1.7c-.4-.1-.8.1-.8.6s.3.9.8 1l.3.1v14.6z" fill="#073042"/><path d="M25.701 189.1l1.5.4 2.6 4.9 2.6-3.5 1.5.4v8l-1.6-.5V194l-1.9 2.5-1.1-.3-1.9-3.6v4.9l-1.6-.5v-7.9h-.1zM38.1 192.6l1.4.4 3.4 8.9-1.7-.5-.8-2-3.4-1-.8 1.6-1.7-.5 3.6-6.9zm-.4 4.6l2.2.6-1.1-2.9-1.1 2.3zM43.701 194.199l2.6.7c.6.2 1.1.4 1.6.8.5.3.9.7 1.3 1.2s.7 1 .9 1.5c.2.5.3 1.1.3 1.6s-.1 1-.3 1.5c-.2.4-.5.8-.9 1-.4.2-.8.4-1.3.5-.5.1-1 0-1.6-.1l-2.6-.7v-8zm2.6 7.2c.4.1.7.1 1 .1.3 0 .6-.2.8-.3.2-.2.4-.4.5-.6.1-.3.2-.6.2-.9 0-.3-.1-.7-.2-1-.1-.3-.3-.7-.5-.9-.2-.3-.5-.5-.8-.7-.3-.2-.6-.4-1-.5l-1-.3v5l1 .1zM56.6 205.9c-.5-.1-.9-.3-1.3-.6s-.7-.5-.9-.8c-.3-.3-.5-.7-.6-1-.1-.4-.2-.7-.2-1l1.6.5c.1.4.2.7.5 1 .3.3.6.4.9.5.3.1.6.1.8 0 .2-.1.3-.2.3-.5 0-.2-.1-.4-.2-.6-.2-.2-.4-.4-.8-.6l-.8-.5c-.6-.4-1.1-.8-1.5-1.3-.4-.5-.6-1.1-.6-1.7 0-.4.1-.7.2-.9.1-.2.3-.5.5-.6.2-.1.5-.2.9-.2.3 0 .7 0 1.1.1.4.1.8.3 1.1.5.3.2.6.5.9.8.2.3.4.6.5.9.1.3.2.6.2.9l-1.6-.5c-.1-.4-.3-.6-.5-.8-.2-.2-.5-.3-.7-.4-.3-.1-.5-.1-.7 0-.2.1-.3.2-.3.5 0 .2.1.5.2.7.2.2.4.4.8.6l.9.5c.6.4 1.2.8 1.5 1.3.4.5.5 1.1.5 1.7 0 .3-.1.6-.2.9-.1.3-.3.5-.6.6-.2.1-.5.2-.9.2-.2-.1-.6-.1-1-.2zM63 207.6c-.4-.1-.8-.3-1.2-.6-.4-.3-.7-.6-.9-.9-.3-.3-.5-.7-.6-1.1-.1-.4-.2-.8-.2-1.2 0-.4.1-.8.2-1.1.1-.3.4-.6.6-.8.3-.2.6-.3.9-.4.4-.1.8 0 1.2.1.4.1.7.3 1.1.5.3.2.6.4.8.7.2.3.5.6.6.9.2.3.3.7.4 1l-1.6-.4c-.1-.3-.3-.5-.5-.8-.2-.2-.5-.4-.8-.5-.2-.1-.4-.1-.6 0-.2 0-.3.1-.4.2-.1.1-.2.2-.3.4-.1.2-.1.4-.1.6 0 .2 0 .5.1.7l.3.6c.1.2.3.3.4.4l.6.3c.3.1.6.1.8 0 .2-.1.4-.3.5-.5l1.6.4c-.1.3-.2.6-.4.8-.2.2-.4.4-.6.5-.2.1-.5.2-.8.2-.3.2-.7.2-1.1 0zM67.6 202.301c-.1 0-.3-.1-.4-.2l-.3-.3c-.1-.1-.2-.2-.2-.4-.1-.1-.1-.3-.1-.4 0-.1 0-.3.1-.4.1-.1.1-.2.2-.2.1-.1.2-.1.3-.1h.4c.3.1.5.2.7.5.2.2.3.5.3.8 0 .3-.1.5-.3.6-.2.1-.4.2-.7.1zm-.8.7l1.5.4v5.6l-1.5-.4v-5.6zM72.3 210.201c-.4-.1-.8-.3-1.2-.5-.4-.3-.7-.5-.9-.9-.3-.3-.5-.7-.6-1.1-.1-.4-.2-.8-.2-1.2 0-.4.1-.8.2-1.1.1-.3.4-.6.6-.8.3-.2.6-.3.9-.3.4 0 .8 0 1.2.1.4.1.8.3 1.2.5.4.2.7.5 1 .9.3.4.5.8.6 1.2.1.5.2.9.2 1.5l-4.4-1.2c0 .2.1.3.1.5.1.2.2.3.3.5.1.1.3.3.5.4l.6.3c.3.1.5.1.7 0 .2-.1.4-.2.5-.3l1.6.4c-.1.3-.2.5-.4.7-.2.2-.4.3-.6.4-.2.1-.5.2-.8.2-.4 0-.8-.1-1.1-.2zm-.1-4.6c-.4-.1-.7-.1-.9 0-.2.1-.4.3-.5.6l2.6.7c0-.2-.1-.4-.2-.5-.1-.2-.2-.3-.3-.4-.1-.1-.2-.2-.4-.3 0 0-.1 0-.3-.1zM76.201 205.6l1.5.4v.6c.1-.2.4-.3.6-.4.3-.1.6 0 1 .1.3.1.6.2.9.4.3.2.5.4.7.7.2.3.3.6.4.9.1.3.1.7.1 1v3.3l-1.5-.4v-3c0-.4-.1-.7-.3-1-.2-.3-.4-.5-.7-.6-.4-.1-.7-.1-.9.1-.2.2-.3.6-.3 1.1v2.7l-1.5-.4v-5.5zM85.501 213.9c-.3-.1-.6-.2-.8-.4-.3-.2-.5-.3-.7-.6-.2-.2-.3-.5-.5-.8-.1-.3-.2-.6-.2-.9V209l-1.1-.3v-1.3l1.1.3v-1.6l1.5.4v1.6l1.6.4v1.3l-1.6-.4v2c0 .3.1.6.2.8.1.2.4.3.7.4.2.1.4.1.6.1v1.4h-.4c0-.1-.2-.1-.4-.2zM88.201 208.1c-.1 0-.3-.1-.4-.2l-.3-.3c-.1-.1-.2-.2-.2-.4-.1-.1-.1-.3-.1-.4 0-.1 0-.3.1-.4.1-.1.1-.2.2-.2.1-.1.2-.1.3-.1h.4c.3.1.5.2.7.5.2.2.3.5.3.8 0 .3-.1.5-.3.6-.2.1-.4.1-.7.1zm-.8.7l1.5.4v5.6l-1.5-.4v-5.6zM92.5 215.899c-.4-.1-.7-.2-1-.4-.3-.2-.6-.4-.8-.6-.2-.2-.4-.5-.5-.8-.1-.3-.2-.5-.2-.8l1.6.4c0 .3.1.5.3.6.2.2.4.3.6.4.2.1.4.1.5 0 .1 0 .2-.1.2-.3 0-.1-.1-.3-.2-.4-.1-.1-.3-.2-.5-.4l-1.1-.6c-.5-.3-.9-.6-1.1-1-.2-.4-.3-.8-.3-1.2 0-.2.1-.4.2-.6.1-.2.3-.3.4-.4.2-.1.4-.1.7-.1.3 0 .6 0 .9.1.3.1.6.2.9.4.3.2.5.3.7.5.2.2.4.4.5.7.1.3.2.5.2.8l-1.5-.2c0-.2-.1-.4-.3-.5-.1-.1-.3-.2-.5-.3-.2-.1-.4-.1-.5 0-.1 0-.2.1-.2.3 0 .2.1.3.2.4.1.1.3.2.4.3l1 .5c.6.3.9.6 1.2 1 .2.4.4.7.4 1.2 0 .3-.1.5-.2.7-.1.2-.3.3-.5.4-.2.1-.5.1-.8.1-.1 0-.4-.1-.7-.2zM98.4 217.5c-.3-.1-.6-.2-.8-.4-.3-.2-.5-.3-.7-.6-.2-.2-.3-.5-.5-.8-.1-.3-.2-.6-.2-.9v-2.3l-1.1-.3v-1.3l1.1.3v-1.6l1.5.4v1.6l1.6.4v1.3l-1.6-.4v2c0 .3.1.6.2.8.1.2.4.3.7.4.2.1.4.1.6.1v1.4h-.4s-.2 0-.4-.1z" fill="#fff"/></g><defs><clipPath id="clip0"><path fill="#fff" transform="translate(4 17)" d="M0 0h312.9v286.5H0z"/></clipPath></defs></svg>