<svg xmlns="http://www.w3.org/2000/svg" fill="none" viewBox="0 0 449 338"><g clip-path="url(#clip0)"><path fill="#DFF7E5" d="M448.327 26.186H1.217v310.283h447.11V26.186z"/><path fill="#fff" d="M290.196 224.787l-44.58 16.142-10.405 3.794-2.205.828-23.357-11.451-1.034-.483-17.708-8.692-20.809-10.209-24.736-12.141-20.809-10.141-14.607-7.174-12.816-6.277-1.102-.552-21.36-10.417-2.825-1.379-12.816-6.278-14.125-6.898-11.163-5.449-10.128-4.967-2.619-1.311-19.844-9.726V26.186h241.643c.344-.69.689-1.31 1.102-2h35.347l.069 1.31v.69l.069 1.035 4.685 86.642.207 4.415.896 16.211.482 9.244.276 5.311.069 1.656.345 6.07 3.169 58.566.689 9.451z"/><path fill="#F1F3F5" d="M188.841 57.642a5.09 5.09 0 0 1-5.1 5.105h-65.113c-2.687 0-5.029-1.932-5.305-4.553-.276-3.035 2.067-5.588 5.03-5.588h65.32a5.006 5.006 0 0 1 5.168 5.036zM267.596 81.993a5.09 5.09 0 0 1-5.098 5.105h-143.87c-2.687 0-5.029-1.932-5.305-4.554-.276-3.035 2.067-5.587 5.03-5.587h144.145c2.825-.069 5.167 2.208 5.098 5.036zM267.596 106.344a5.09 5.09 0 0 1-5.098 5.105h-143.87c-2.687 0-5.029-1.932-5.305-4.553-.276-3.036 2.067-5.588 5.03-5.588h144.145c2.825-.069 5.167 2.208 5.098 5.036zM267.596 130.763a5.09 5.09 0 0 1-5.098 5.105h-143.87c-2.687 0-5.029-1.931-5.305-4.552-.276-3.036 2.067-5.588 5.03-5.588h144.145c2.825-.069 5.167 2.208 5.098 5.035zM267.596 153.045a5.09 5.09 0 0 1-5.098 5.105h-143.87c-2.687 0-5.029-1.932-5.305-4.553-.276-3.035 2.067-5.588 5.03-5.588h144.145c2.825-.069 5.167 2.208 5.098 5.036zM267.596 175.326a5.09 5.09 0 0 1-5.098 5.105h-143.87c-2.687 0-5.029-1.931-5.305-4.552-.276-3.036 2.067-5.588 5.03-5.588h144.145c2.825-.069 5.167 2.207 5.098 5.035zM266.907 197.608c0 2.828-2.273 5.035-5.098 5.035H145.363l-20.808-10.14h137.254c2.825 0 5.167 2.277 5.098 5.105zM266.906 219.889c0 2.828-2.273 5.036-5.098 5.036h-70.902l-20.808-10.14h91.71c2.825 0 5.167 2.276 5.098 5.104z"/><path fill="#FAB99A" d="M181.309 325.808l50.686-15.662 3.415-17.234 10.247-51.428-36.819-6.634-7.651 39.05-15.575 20.175-1.571 19.901-2.732 11.832z"/><path fill="#EBA286" d="M182.469 325.534l50.618-15.73 3.415-17.234-35.316-18.67-14.482 19.833-1.503 19.969-2.732 11.832z"/><path fill="#1E8061" d="M235.069 247.228c.068 0 .068 0 0 0l-7.582 90h165.857l-28.553-21.269-36.752-44.248-32.994-104.568-4.781-2.872v-14.84l-20.494-17.029-25.684 7.796-6.284 1.915c-7.72 2.325-13.526 8.822-14.96 16.824l-14.004 75.981c0-.069 25.07 12.241 26.231 12.31z"/><path fill="#EBA286" d="M396.965 277.798l3.893-24.415-31.217-1.436 27.324 25.851z"/><path fill="#1E8061" d="M348.737 119.545l58.61 26.125c18.376 8.138 29.168 27.424 26.641 47.325l-8.675 67.775-57.996-9.233-58.815-41.649-13.525-45.685 53.76-44.658z"/><path fill="#FAB99A" d="M248.116 36.246c-2.664 6.77-4.508 13.473-4.714 20.79-.204 6.976.547 14.157.547 21.064a7.538 7.538 0 0 0 5.943 7.387c.82.205 1.298.957 1.093 1.778-.751 2.873-1.298 9.916 5.943 19.764 0 0-3.757 10.875 2.254 12.106 6.012 1.299 9.906-.685 9.906-.685l20.151 2.257h13.935l11.409-26.603-8.403-53.754-13.73-12.174h-16.873l-6.968 1.3-11.681 4.582-8.812 2.188zM322.779 62.713s-3.21 11.626-2.664 15.045c.547 3.42 0 0 0 0l8.402 14.157 7.583-5.06-13.321-24.142z"/><path fill="#FAB99A" d="M306.315 53.139l6.285 28.997 5.056 17.234-2.05 15.661-20.835 24.758 1.23 4.581 11.339 34.263 41.533-59.088-12.501-27.63s5.943-8.753 8.061-24.346c0 0 .752-15.25-11.954-14.499-12.706.753-26.164.069-26.164.069z"/><path fill="#EBA286" d="M288.76 158.8l11.749 29.476 48.227-68.732-12.501-27.629c.137.342-2.254 3.214-2.663 3.557-1.982 1.846-7.924 4.855-11.272-1.3l-.614 13.336 3.893-.684L288.76 158.8z"/><path fill="#002A35" d="M342.59 50.608c0 2.53-.205 4.924-.546 7.318v.137c-1.367-1.847-3.621-2.53-6.012-3.078-5.533-1.3-9.836 5.54-12.022 9.985-.957 1.983-1.503 3.42-1.503 3.42-1.298 2.872-2.05 6.155-2.391 9.37-.547 5.196-.137 10.189.204 12.924.206 1.368.889 2.668 2.05 3.489l3.074 3.145 1.844 1.847c3.416 3.487 3.962 8.959 1.299 13.062-4.509 7.044-9.018 14.02-14.141 20.107-3.142 3.693-9.017 9.779-12.842 12.789a185.876 185.876 0 0 1-3.552 2.735c-.273.205-.547.342-.752.547-.751.548-1.435.958-2.186 1.436a15.981 15.981 0 0 1-4.85 1.916 17.017 17.017 0 0 1-3.962.478h-1.366c-5.123 0-12.364-5.129-13.184-10.053l-2.801-9.643-1.366-4.788c-.546-1.778-1.64-3.35-3.006-4.513-.819-.684-1.571-1.436-2.322-2.189-.478-.547-.137-1.368.614-1.436l.342-.068 5.738-1.095s7.788-2.051 14.824-2.667c.819-.068 1.571-.136 2.322-.136 3.962-.137 6.08 2.257 7.788 2.94 1.844.753 4.303.958 5.533-.547 5.328-6.497 9.427-14.362 11.886-19.627a16.082 16.082 0 0 0 .751-11.422c-2.527-8.138-6.899-22.294-7.172-22.978l-.615-2.052c0 .068 0 .137.068.205l-6.012-18.875-.477-1.847c-2.255-6.907-8.676-11.831-16.327-11.831-.819 0-1.639.068-2.459.205-10.11 1.915-15.984 15.046-26.368 15.046a11.11 11.11 0 0 1-6.899-2.394c-2.596-2.052-4.304-5.266-4.304-8.822 0-1.573.479-3.283 1.23-4.924.341-.684.683-1.3 1.093-1.984 4.577-7.249 14.619-14.361 19.878-17.918C272.025 3.214 281.999 0 292.108 0c20.084 0 37.435 11.763 45.495 28.724 3.279 6.77 4.987 14.088 4.987 21.884z"/><path fill="#002A35" d="M304.336 62.03c0 .068 0 .136.068.204.137.616.342 1.232.547 1.78l-.615-1.985z"/><path fill="#FAB99A" d="M396.965 277.798l-78.831-74.681-14.208-45.411-8.812-14.567a7.501 7.501 0 0 0-2.459-2.394l-18.102-10.395c-1.64 2.052-1.572 5.061.136 7.044l9.768 10.19 4.168 11.216-7.242-1.367-15.779 22.021 7.514 21.269 18.854 18.397 51.164 86.854c2.459 4.172 5.67 7.797 9.495 10.806l28.69 20.517 13.663-7.797 5.806-23.184-3.825-28.518z"/><path fill="#fff" stroke="#fff" stroke-linecap="round" stroke-linejoin="round" stroke-miterlimit="10" stroke-width="2.782" d="M62.447 197.919l89.965 48.762 7.856 18.738 55.263 31.254-.205 2.804-47.749 1.71-59.84-24.073-44.129-18.123-9.973-58.61 6.148-4.172 2.664 1.71z"/><path fill="#002A35" stroke="#002A35" stroke-linecap="round" stroke-linejoin="round" stroke-miterlimit="10" stroke-width="2.086" d="M61.15 261.248l103.355 55.464 50.413-14.156a.818.818 0 0 0 .205-1.505l-92.698-50.608c-1.024-.547-2.254-.753-3.415-.547l-54.854 10.805L53.5 197.304l-3.074.547 10.725 63.397z"/><path fill="#F0F0EE" d="M160.269 265.283l-37.161-20.448c-1.093-.616-2.391-.821-3.621-.48l-50.208 11.49-1.366-8.754-6.694-38.913 96.591 51.497 2.459 5.608z"/><path fill="#FAB99A" d="M150.363 306.317l20.151-8.754a11.653 11.653 0 0 1 10.11.341l5.465 2.805c4.986 2.598 7.445 8.343 5.943 13.746l-3.348 11.831c-.546 1.915-2.048 3.352-4.03 3.83l-10.93 2.599c-1.503.342-3.142.069-4.439-.889l-19.811-14.02c-1.298-.957-2.185-2.393-2.391-4.035l-.137-1.436a5.703 5.703 0 0 1 3.417-6.018z"/><path fill="#094D40" d="M208.838 234.849s25.07 12.311 26.231 12.448l9.017-107.099-6.284 1.916c-7.72 2.324-13.526 8.821-14.96 16.823l-14.004 75.912z"/><path fill="#FAB99A" d="M425.314 260.838l-11.066 76.391h-32.857l9.563-81.862 34.36 5.471z"/><path fill="#094D40" d="M370.869 252.152l54.512 8.686 8.676-67.774c2.527-19.902-8.266-39.188-26.573-47.326l-26.573-11.831-10.042 118.245z"/><path fill="#49B484" d="M91.136 119.727H28.71c-2.068 0-3.79-1.725-3.79-3.795V53.504c0-2.07 1.722-3.794 3.79-3.794h62.426c2.067 0 3.79 1.724 3.79 3.794v62.498c0 2.069-1.723 3.725-3.79 3.725z"/><path fill="#fff" d="M58.89 95.307c-2.205 0-3.997 1.724-3.997 3.862 0 2.07 1.792 3.795 3.997 3.795s3.996-1.725 3.996-3.794c0-2.208-1.791-3.863-3.996-3.863zm1.516-28.766c-6.546 0-10.543 4.14-11.3 9.52l6.063.827c.344-2.414 1.86-5.173 5.03-5.173 2.55 0 3.79 1.379 3.79 3.862 0 2.415-1.516 3.933-3.377 5.864-2.411 2.622-4.616 4.76-4.616 8.692v1.932h5.856v-1.518c.07-2.828 2.343-4.76 4.755-7.174 2.274-2.415 4.134-4.553 4.134-8.14 0-5.312-3.514-8.692-10.335-8.692z"/></g><defs><clipPath id="clip0"><path fill="#fff" d="M0 0h447.875v337.297H0z" transform="translate(.625)"/></clipPath></defs></svg>